<?xml version="1.0" encoding="UTF-8" standalone="no"?>
<svg
   width="210mm"
   height="148mm"
   viewBox="3972.6 3539.6 826.78407 582.68381"
   version="1.1"
   id="svg3605"
   sodipodi:docname="R0B 110 degrees for EasyEDA.svg"
   inkscape:version="1.2.2 (732a01da63, 2022-12-09)"
   inkscape:export-filename="ROB.svg"
   inkscape:export-xdpi="96"
   inkscape:export-ydpi="96"
   xmlns:inkscape="http://www.inkscape.org/namespaces/inkscape"
   xmlns:sodipodi="http://sodipodi.sourceforge.net/DTD/sodipodi-0.dtd"
   xmlns="http://www.w3.org/2000/svg"
   xmlns:svg="http://www.w3.org/2000/svg">
  <defs
     id="defs3609" />
  <sodipodi:namedview
     id="namedview3607"
     pagecolor="#ffffff"
     bordercolor="#000000"
     borderopacity="0.25"
     inkscape:showpageshadow="2"
     inkscape:pageopacity="0.0"
     inkscape:pagecheckerboard="0"
     inkscape:deskcolor="#d1d1d1"
     inkscape:document-units="mm"
     showgrid="false"
     inkscape:zoom="2.96133"
     inkscape:cx="83.408469"
     inkscape:cy="410.11978"
     inkscape:window-width="2400"
     inkscape:window-height="1511"
     inkscape:window-x="-9"
     inkscape:window-y="-9"
     inkscape:window-maximized="1"
     inkscape:current-layer="text390"
     showguides="true">
    <sodipodi:guide
       position="11.540153,577.61493"
       orientation="0,-1"
       id="guide3485"
       inkscape:locked="false" />
    <sodipodi:guide
       position="-1.9812526,583.06979"
       orientation="0,-1"
       id="guide3487"
       inkscape:locked="false" />
  </sodipodi:namedview>
  <title
     id="title2330" />
  <style
     type="text/css"
     id="style2332">
*[layerid=&quot;1&quot;] {stroke:#000000;fill:#000000;}
*[layerid=&quot;2&quot;] {stroke:#000000;fill:#000000;}
*[layerid=&quot;3&quot;] {stroke:#000000;fill:#000000;}
*[layerid=&quot;4&quot;] {stroke:#000000;fill:#000000;}
*[layerid=&quot;5&quot;] {stroke:#000000;fill:#000000;}
*[layerid=&quot;6&quot;] {stroke:#000000;fill:#000000;}
*[layerid=&quot;7&quot;] {stroke:#000000;fill:#000000;}
*[layerid=&quot;8&quot;] {stroke:#000000;fill:#000000;}
*[layerid=&quot;9&quot;] {stroke:#000000;fill:#000000;}
*[layerid=&quot;10&quot;] {stroke:#000000;fill:#000000;}
*[layerid=&quot;11&quot;] {stroke:#000000;fill:#000000;}
*[layerid=&quot;12&quot;] {stroke:#000000;fill:#000000;}
*[layerid=&quot;13&quot;] {stroke:#000000;fill:#000000;}
*[layerid=&quot;14&quot;] {stroke:#000000;fill:#000000;}
*[layerid=&quot;15&quot;] {stroke:#000000;fill:#000000;}
*[layerid=&quot;19&quot;] {stroke:#000000;fill:#000000;}
*[layerid=&quot;21&quot;] {stroke:#000000;fill:#000000;}
*[layerid=&quot;22&quot;] {stroke:#000000;fill:#000000;}
*[layerid=&quot;23&quot;] {stroke:#000000;fill:#000000;}
*[layerid=&quot;24&quot;] {stroke:#000000;fill:#000000;}
*[layerid=&quot;25&quot;] {stroke:#000000;fill:#000000;}
*[layerid=&quot;26&quot;] {stroke:#000000;fill:#000000;}
*[layerid=&quot;27&quot;] {stroke:#000000;fill:#000000;}
*[layerid=&quot;28&quot;] {stroke:#000000;fill:#000000;}
*[layerid=&quot;29&quot;] {stroke:#000000;fill:#000000;}
*[layerid=&quot;30&quot;] {stroke:#000000;fill:#000000;}
*[layerid=&quot;31&quot;] {stroke:#000000;fill:#000000;}
*[layerid=&quot;32&quot;] {stroke:#000000;fill:#000000;}
*[layerid=&quot;33&quot;] {stroke:#000000;fill:#000000;}
*[layerid=&quot;34&quot;] {stroke:#000000;fill:#000000;}
*[layerid=&quot;35&quot;] {stroke:#000000;fill:#000000;}
*[layerid=&quot;36&quot;] {stroke:#000000;fill:#000000;}
*[layerid=&quot;37&quot;] {stroke:#000000;fill:#000000;}
*[layerid=&quot;38&quot;] {stroke:#000000;fill:#000000;}
*[layerid=&quot;39&quot;] {stroke:#000000;fill:#000000;}
*[layerid=&quot;40&quot;] {stroke:#000000;fill:#000000;}
*[layerid=&quot;41&quot;] {stroke:#000000;fill:#000000;}
*[layerid=&quot;42&quot;] {stroke:#000000;fill:#000000;}
*[layerid=&quot;43&quot;] {stroke:#000000;fill:#000000;}
*[layerid=&quot;44&quot;] {stroke:#000000;fill:#000000;}
*[layerid=&quot;45&quot;] {stroke:#000000;fill:#000000;}
*[layerid=&quot;46&quot;] {stroke:#000000;fill:#000000;}
*[layerid=&quot;47&quot;] {stroke:#000000;fill:#000000;}
*[layerid=&quot;48&quot;] {stroke:#000000;fill:#000000;}
*[layerid=&quot;49&quot;] {stroke:#000000;fill:#000000;}
*[layerid=&quot;50&quot;] {stroke:#000000;fill:#000000;}
*[layerid=&quot;51&quot;] {stroke:#000000;fill:#000000;}
*[layerid=&quot;52&quot;] {stroke:#000000;fill:#000000;}
*[layerid=&quot;99&quot;] {stroke:#000000;fill:#000000;}
*[layerid=&quot;100&quot;] {stroke:#000000;fill:#000000;}
*[layerid=&quot;101&quot;] {stroke:#000000;fill:#000000;}
*[layerid=&quot;Hole&quot;] {stroke:#000000;fill:#000000;}
*[layerid=&quot;DRCError&quot;] {stroke:#000000;fill:#000000;}
*[fill=&quot;none&quot;] {fill: none;}
*[stroke=&quot;none&quot;] {stroke: none;}
path, polyline, polygon, line {stroke-linecap:round;}
g[c_partid=&quot;part_pad&quot;][layerid=&quot;1&quot;] ellipse:not([c_etype=&quot;pad_outer&quot;]) {fill:#000000;}
g[c_partid=&quot;part_pad&quot;][layerid=&quot;1&quot;] polygon:not([c_etype=&quot;pad_outer&quot;]) {fill:#000000;}
g[c_partid=&quot;part_pad&quot;][layerid=&quot;1&quot;] polyline:not([c_etype=&quot;pad_outer&quot;]) {stroke:#000000;}
g[c_partid=&quot;part_pad&quot;][layerid=&quot;2&quot;] ellipse:not([c_etype=&quot;pad_outer&quot;]) {fill:#000000;}
g[c_partid=&quot;part_pad&quot;][layerid=&quot;2&quot;] polygon:not([c_etype=&quot;pad_outer&quot;]) {fill:#000000;}
g[c_partid=&quot;part_pad&quot;][layerid=&quot;2&quot;] polyline:not([c_etype=&quot;pad_outer&quot;]) {stroke:#000000;}
g[c_partid=&quot;part_pad&quot;][layerid=&quot;11&quot;] ellipse:not([c_etype=&quot;pad_outer&quot;]) {fill:#000000;}
g[c_partid=&quot;part_pad&quot;][layerid=&quot;11&quot;] polygon:not([c_etype=&quot;pad_outer&quot;]) {fill:#000000;}
g[c_partid=&quot;part_pad&quot;][layerid=&quot;11&quot;] polyline:not([c_etype=&quot;pad_outer&quot;]) {stroke:#000000;}
g[c_partid=&quot;part_pad&quot;][layerid=&quot;11&quot;] circle {fill:#FFFFFF;}
g[c_partid=&quot;part_pad&quot;][layerid=&quot;11&quot;] &gt; polyline:nth-of-type(2) {stroke:#FFFFFF;}
g[c_partid=&quot;part_pad&quot;][layerid=&quot;11&quot;][c_shape=&quot;ELLIPSE&quot;]  polyline:nth-last-of-type(1) {stroke:#FFFFFF;}
g[c_partid=&quot;part_pad&quot;][layerid=&quot;11&quot;][c_shape=&quot;RECT&quot;]  polyline:nth-last-of-type(1) {stroke:#FFFFFF;}
g[c_partid=&quot;part_pad&quot;][layerid=&quot;11&quot;][c_shape=&quot;POLYGON&quot;]  polyline:nth-last-of-type(1) {stroke:#FFFFFF;}
g[c_partid=&quot;part_via&quot;] &gt; * + circle, #gCurParts g[c_partid=&quot;part_via&quot;] &gt; * + circle {fill:#FFFFFF;}
g[c_partid=&quot;part_pad&quot;] &gt; polygon[c_etype=&quot;pad_outer&quot;], #gCurParts g[c_partid=&quot;part_pad&quot;] &gt; polygon[c_etype=&quot;pad_outer&quot;] {stroke-linejoin: round;stroke-miterlimit: 100;}
g[c_partid=&quot;part_hole&quot;] &gt; circle {fill: #FFFFFF;}path, polyline, polygon {stroke-linejoin:round;}
rect, circle, ellipse, polyline, line, polygon, path {shape-rendering:crispEdges;}
</style>
  <g
     aria-label="R0B"
     id="text390"
     style="font-size:77.7789px;font-family:'Tw Cen MT';-inkscape-font-specification:'Tw Cen MT, Normal';text-align:center;text-anchor:middle;fill:none;stroke:#000000;stroke-width:0.393707"
     transform="translate(-10.280353,-0.03207278)">
    <path
       d="M 4134.1329,3713.4665"
       style="font-size:8.33346px;fill:#000000;fill-opacity:1;stroke:none;stroke-width:2.52292;stroke-linecap:round;stroke-linejoin:round;stroke-dasharray:none;shape-rendering:crispEdges"
       id="path1173" />
    <path
       id="path1188"
       style="font-size:8.33346px;fill:#000000;fill-opacity:1;stroke:none;stroke-width:2.96904;stroke-dasharray:none"
       d="m 4112.4586,4011.2073 a 2.6324481,2.6866262 69.999999 0 0 -3.4841,-1.4232 2.6324481,2.6866262 69.999999 0 0 -1.317,1.1289 l -1.7354,2.8639 c -3.5118,-0.5419 -7.4603,-0.019 -11.8375,1.574 -5.2757,1.9202 -9.1146,4.8922 -11.5207,8.9282 -2.3837,4.0527 -1.6547,7.8805 -0.1159,12.1084 1.1492,3.1574 2.486,5.7785 5.078,7.5808 l -0.7741,1.2755 a 2.6324481,2.6866262 69.999999 0 0 -0.2251,2.3856 2.6324481,2.6866262 69.999999 0 0 3.4848,1.425 2.6324481,2.6866262 69.999999 0 0 1.2714,-1.0517 l 1.1972,-1.9751 c 3.7854,0.8464 7.9817,0.4357 12.5926,-1.2425 5.4194,-1.9725 9.3337,-4.9225 11.7323,-8.8646 2.4248,-3.9261 1.8266,-7.6757 0.2582,-11.9848 l -0.1113,-0.3058 c -1.247,-3.4262 -2.7955,-6.2821 -5.9007,-8.1041 l 1.1709,-1.9223 a 2.6324481,2.6866262 69.999999 0 0 0.227,-2.3863 z m 13.9868,38.9757 c -0.9138,-2.5181 -2.0491,-5.4535 -2.935,-7.1181 -2.6267,0.6454 -28.8743,10.0365 -33.628,12.3327 1.145,3.3165 3.4462,9.8549 3.4462,9.8549 l 0.9157,2.5159 c 0.3045,0.7342 0.5929,1.3973 0.8646,1.989 0.2929,0.5846 0.5701,1.1065 0.8326,1.5676 0.2726,0.4768 0.5364,0.91 0.7904,1.2972 1.0517,1.518 2.151,2.6915 3.2976,3.5219 1.1469,0.8299 2.2817,1.4152 3.4038,1.7555 1.1388,0.3345 2.2305,0.4569 3.2724,0.3656 1.0479,-0.075 1.9862,-0.264 2.8165,-0.5661 0.9664,-0.3518 1.7868,-0.8142 2.462,-1.3854 0.6807,-0.5549 1.2335,-1.1958 1.6587,-1.9266 0.4484,-0.7199 0.7628,-1.5175 0.9445,-2.3898 0.2053,-0.8617 0.2975,-1.7681 0.2764,-2.7204 l 0.1014,-0.037 c 1.369,1.2298 2.7844,1.9537 4.2454,2.1702 1.4778,0.2106 2.9523,0.047 4.427,-0.4899 l 0.027,-0.01 c 0.8306,-0.3023 1.6031,-0.7379 2.3182,-1.3048 0.7381,-0.5564 1.3707,-1.2468 1.8961,-2.0716 0.5483,-0.8137 0.9641,-1.7512 1.2489,-2.8145 0.3001,-1.0692 0.4281,-2.2497 0.3835,-3.5387 -0.053,-1.7276 -0.541,-3.8539 -1.4603,-6.3796 0,0 -0.6914,-2.1005 -1.6052,-4.6184 z m -22.3234,-61.3035 c 0,0 -3.509,-9.7118 -4.1987,-10.1915 -1.1365,-0.7906 -31.6194,11.5085 -33.5891,12.2254 0.4141,1.3221 2.2677,6.2306 2.2677,6.2306 l 13.1725,-4.7944 1.5546,4.2711 -9.8039,14.0497 2.7208,7.4752 10.3019,-15.2095 0.099,-0.036 c 1.7961,2.4562 3.7534,4.0365 5.8726,4.7432 2.1426,0.7176 4.402,0.6453 6.7752,-0.2185 2.2711,-0.8266 3.9547,-2.0534 5.0515,-3.6811 1.1134,-1.6343 1.6875,-3.591 1.7223,-5.8686 0.01,-1.1927 -0.1632,-2.5597 -0.5124,-4.1026 -0.3327,-1.5489 -0.8112,-3.1807 -1.4344,-4.8928 z m 8.1441,36.5511 c 0.9634,2.6469 1.3682,4.983 -0.5019,7.6394 -1.8682,2.6557 -4.7435,4.6927 -8.6327,6.1082 -2.6238,0.955 -5.0597,1.4254 -7.301,1.421 l 10.2442,-16.8318 2.1408,-3.5288 c 2.2078,1.0051 3.2036,2.8651 4.0506,5.192 z m -14.8541,-38.7769 1.6199,4.4507 c 0.4813,1.3223 0.8161,2.4571 1.0057,3.4057 0.2061,0.9421 0.282,1.7587 0.2272,2.4505 -0.074,1.0615 -0.3995,1.9098 -0.9751,2.5438 -0.5528,0.6446 -1.2858,1.1327 -2.201,1.4657 -1.0677,0.3886 -2.107,0.49 -3.1166,0.3008 -0.9863,-0.1787 -1.9456,-0.8093 -2.8771,-1.8908 -0.5008,-0.5853 -1.0012,-1.3522 -1.5027,-2.3024 -0.4745,-0.9406 -0.9701,-2.1242 -1.4884,-3.5481 l -1.1173,-3.0814 z m 23.3637,64.4648 1.86,5.1104 c 0.327,0.8986 0.569,1.6653 0.7244,2.2998 0.1721,0.628 0.2729,1.1965 0.3021,1.7044 0.062,1.2253 -0.1791,2.1946 -0.7244,2.9115 -0.5284,0.7103 -1.2419,1.2293 -2.1399,1.5561 -0.8648,0.3148 -1.7194,0.3954 -2.5628,0.24 -0.8185,-0.1436 -1.5928,-0.6097 -2.3237,-1.3994 -0.6397,-0.7078 -1.2689,-1.9099 -1.8858,-3.6049 l -2.0463,-5.6162 z m -18.27,-31.7377 -12.1583,19.9599 c -1.6957,-1.0096 -2.6318,-2.6027 -3.3523,-4.5822 -1.0083,-2.7701 -1.2948,-5.2125 0.5013,-7.8427 1.8139,-2.6359 4.7313,-4.6882 8.7455,-6.1493 2.2326,-0.8126 4.321,-1.2738 6.2638,-1.3857 z m 4.2631,36.8336 2.1461,5.9025 c 0.3764,1.034 0.6522,1.8937 0.8261,2.579 0.174,0.6853 0.2735,1.3011 0.2983,1.8487 0.051,1.248 -0.1839,2.2646 -0.7045,3.0493 -0.5207,0.7846 -1.255,1.3489 -2.2044,1.6945 -0.5424,0.1974 -1.0889,0.3089 -1.6365,0.3336 -0.528,0.022 -1.0602,-0.072 -1.5988,-0.282 -0.5207,-0.2133 -1.0467,-0.5488 -1.5774,-1.0085 -0.5137,-0.4654 -1.0208,-1.0978 -1.5231,-1.8944 -0.3409,-0.509 -0.6879,-1.1399 -1.0385,-1.8954 -0.3336,-0.7618 -0.6977,-1.6851 -1.0925,-2.7699 l -1.4808,-4.0684 z"
       inkscape:export-filename="ROB gold track 70 degrees.svg"
       inkscape:export-xdpi="96"
       inkscape:export-ydpi="96" />
    <path
       id="path1188-4"
       style="font-size:8.33346px;font-family:'Tw Cen MT';-inkscape-font-specification:'Tw Cen MT, Normal';text-align:center;text-anchor:middle;fill:#000000;fill-opacity:1;stroke:none;stroke-width:2.96904;stroke-linecap:round;stroke-linejoin:round;stroke-dasharray:none;shape-rendering:crispEdges"
       d="m 4056.1494,3896.1154 a 2.6866262,2.6324481 89.999999 0 0 -2.5302,2.7868 2.6866262,2.6324481 89.999999 0 0 0.6118,1.6239 l 2.0966,2.6106 c -1.7103,3.1147 -2.5701,7.0041 -2.5701,11.6622 0,5.6143 1.4809,10.2391 4.4506,13.8805 2.993,3.626 6.8385,4.2484 11.3377,4.2484 3.3601,0 6.2812,-0.3591 8.8613,-2.1784 l 0.9336,1.1637 v 0 a 2.6866262,2.6324481 89.999999 0 0 2.1645,1.028 2.6866262,2.6324481 89.999999 0 0 2.5302,-2.7868 2.6866262,2.6324481 89.999999 0 0 -0.5519,-1.5561 v 0 l -1.4477,-1.7994 c 2.09,-3.2676 3.1387,-7.3505 3.1387,-12.2573 0,-5.7672 -1.4317,-10.4545 -4.3157,-14.0567 -2.86,-3.6214 -6.5891,-4.3428 -11.1747,-4.3428 h -0.3258 c -3.646,0 -6.8585,0.4787 -9.6327,2.7735 l -1.4071,-1.7588 v 0 a 2.6866262,2.6324481 89.999999 0 0 -2.1644,-1.028 z m 13.2986,5.0464 c 2.8168,0 5.1515,0.4189 7.0081,3.0847 1.8566,2.6639 2.7869,6.0619 2.7869,10.2006 0,2.7922 -0.3924,5.2419 -1.1631,7.3465 l -12.3118,-15.3826 -2.584,-3.2198 c 1.6996,-1.7309 3.7876,-2.0294 6.2639,-2.0294 z m -9.0235,7.1025 14.5979,18.2506 c -1.5287,1.2481 -3.3461,1.5833 -5.4527,1.5833 -2.9478,0 -5.3396,-0.5652 -7.1969,-3.1526 -1.8566,-2.606 -2.7869,-6.0505 -2.7869,-10.3223 0,-2.3759 0.2793,-4.4951 0.8386,-6.359 z" />
    <path
       d="m 4116.0847,3906.0333 c 0,1.5693 -0.3518,3.0123 -1.0553,4.3289 -0.7031,1.2989 -1.8665,2.3813 -3.4904,3.2471 v 0.1063 c 0.9021,0.3059 1.7229,0.7027 2.4624,1.1903 0.7576,0.4691 1.3979,1.0374 1.921,1.705 0.5413,0.6495 0.9563,1.3889 1.2449,2.2183 0.3059,0.8299 0.4588,1.7591 0.4588,2.7876 0,0.8835 -0.1441,1.8304 -0.4322,2.8407 -0.2705,1.0103 -0.7577,1.9934 -1.4616,2.9491 -0.7035,0.9381 -1.6414,1.8041 -2.8135,2.598 -1.1725,0.7935 -2.6519,1.4248 -4.438,1.8939 -0.4508,0.1063 -0.9469,0.2061 -1.4882,0.2992 -0.5231,0.089 -1.1093,0.1707 -1.7588,0.246 -0.649,0.053 -1.3705,0.098 -2.1645,0.133 h -2.6784 c 0,0 -6.9314,-0.074 -10.4395,-0.1324 -0.5319,-5.2524 -0.3779,-33.1287 -0.086,-35.8177 3.7344,-0.5264 12.5818,-0.2532 12.5818,-0.2532 2.6878,0 4.8525,0.2704 6.4941,0.8112 1.2266,0.399 2.291,0.9223 3.1931,1.57 0.9017,0.6313 1.6412,1.3437 2.2184,2.1372 0.5953,0.7758 1.0282,1.6057 1.2986,2.4896 0.2882,0.8658 0.4323,1.7407 0.4323,2.6246 z m -19.5899,10.823 v 10.2005 h 4.3296 c 1.1544,0 2.1465,-0.027 2.9764,-0.08 0.8299,-0.071 1.5423,-0.1795 2.1372,-0.3258 0.9203,-0.1995 1.687,-0.461 2.3001,-0.7846 0.6135,-0.3414 1.1096,-0.7202 1.4882,-1.1365 0.3813,-0.4344 0.6519,-0.9034 0.8119,-1.407 0.1641,-0.5231 0.2461,-1.0733 0.2461,-1.6505 0,-1.0103 -0.2795,-1.8942 -0.8386,-2.6519 -0.5594,-0.7576 -1.4343,-1.3257 -2.6246,-1.7043 -0.5231,-0.164 -1.1364,-0.2815 -1.8399,-0.3524 -0.7035,-0.071 -1.6055,-0.1064 -2.7058,-0.1064 z m 5.9801,-5.5472 c 1.8038,0 3.1477,-0.1795 4.0316,-0.5386 0.9921,-0.4167 1.6957,-0.985 2.1106,-1.705 0.4345,-0.7394 0.6517,-1.5693 0.6517,-2.4896 0,-0.9557 -0.2434,-1.8033 -0.7301,-2.5428 -0.4872,-0.7576 -1.3171,-1.3168 -2.4897,-1.6777 -0.4872,-0.1463 -1.0553,-0.2461 -1.7043,-0.2992 -0.6494,-0.071 -1.4522,-0.1064 -2.4085,-0.1064 h -5.4387 v 9.362 z"
       style="font-size:8.33346px;font-family:Corbel;-inkscape-font-specification:'Corbel, Bold';text-align:center;text-anchor:middle;fill:#000000;stroke:none;stroke-width:1.83261;stroke-linecap:round;stroke-linejoin:round;shape-rendering:crispEdges"
       id="path3476-3"
       sodipodi:nodetypes="cccccccsccccccccccsccccccccscccccsccscccccscccsccc" />
    <path
       d="m 4048.0914,3907.1923 c 0,2.5255 -0.7035,4.6723 -2.1106,6.4402 -1.3889,1.7497 -3.5445,3.0484 -6.4668,3.8961 v 0.1064 l 10.7691,14.8819 h -7.955 l -9.8495,-14.0162 h -4.5457 v 14.0162 c 0,0 -5.245,0.063 -6.629,0 0,-2.0962 -1.1316,-34.9454 0,-35.743 0.6867,-0.484 11.0125,-0.4604 11.0125,-0.4604 1.822,0 3.5177,0.1086 5.087,0.3258 1.5693,0.1995 2.9132,0.5063 4.0317,0.9204 2.1283,0.8117 3.7698,2.0201 4.9247,3.6253 1.1544,1.5875 1.7316,3.5898 1.7316,6.0067 z m -16.8842,5.764 c 1.5153,0 2.796,-0.062 3.8422,-0.1862 1.0644,-0.1463 1.9572,-0.3547 2.6785,-0.6251 1.3348,-0.5054 2.2549,-1.191 2.7602,-2.0567 0.5231,-0.884 0.7847,-1.8941 0.7847,-3.0303 0,-0.9739 -0.2084,-1.8308 -0.6251,-2.5707 -0.3989,-0.7577 -1.0845,-1.3528 -2.0567,-1.7855 -0.6313,-0.2881 -1.4248,-0.4965 -2.3806,-0.625 -0.9562,-0.1463 -2.1378,-0.2195 -3.5449,-0.2195 h -4.7352 v 11.0943 z"
       style="font-size:8.33346px;font-family:Corbel;-inkscape-font-specification:'Corbel, Bold';text-align:center;text-anchor:middle;fill:#000000;stroke:none;stroke-width:1.83261;stroke-linecap:round;stroke-linejoin:round;shape-rendering:crispEdges"
       id="path3472-8"
       sodipodi:nodetypes="scccccccccsscccssccccscccsccc" />
    <path
       id="path24171"
       style="font-size:8.33346px;fill:#000000;fill-opacity:1;stroke:none;stroke-width:2.96904;stroke-dasharray:none"
       d="m 4062.0774,4027.2567 c -0.6945,-2.6209 -3.9655,-3.9558 -6.3734,-2.8247 -1.6113,0.6311 -2.401,2.2454 -3.2387,3.6377 -5.1781,-0.3742 -10.3485,1.0851 -14.9589,3.3634 -4.3475,2.2076 -8.1945,5.7497 -10.08,10.3107 -1.4293,3.5388 -0.8588,7.5036 0.3896,11.0033 1.0236,2.9762 2.3074,5.9972 4.6311,8.203 -1.2145,2.1188 -0.3766,5.0763 1.772,6.2371 2.2222,1.3864 5.4241,0.4637 6.633,-1.8453 0.1759,-0.772 0.9196,-0.3464 1.476,-0.3621 5.4314,0.4182 10.8493,-1.2172 15.6018,-3.759 4.2011,-2.3073 7.933,-5.8816 9.5868,-10.4594 1.2824,-3.6858 0.4055,-7.6737 -0.9312,-11.2102 -1.0808,-3.0164 -2.5793,-6.0282 -5.113,-8.0858 0.8373,-1.2392 1.1153,-2.8496 0.6203,-4.2747 z m 13.2334,36.7756 c -0.7442,-1.8344 -1.3875,-3.7509 -2.3869,-5.4536 -0.6063,-0.3684 -1.0504,-1.2054 -1.8534,-1.0055 -1.2652,0.046 -2.437,0.6691 -3.6454,1.0116 -9.1447,3.1356 -18.243,6.4163 -27.2462,9.9391 -1.1999,0.5027 -2.4574,0.937 -3.5868,1.5643 -0.3116,0.4858 -0.9808,0.8398 -1.0654,1.4091 -0.1441,1.2973 0.5583,2.4435 0.909,3.6525 1.3501,3.7388 2.5219,7.5481 4.0644,11.2136 1.6852,3.8886 4.3702,7.5856 8.3123,9.4029 3.8439,1.8741 8.7685,1.3711 12.1074,-1.3134 1.6069,-1.3102 2.7696,-3.1581 3.2551,-5.1733 4.7584,2.1256 10.8634,-0.052 13.3818,-4.5748 2.0878,-3.5393 2.0365,-7.9376 0.8414,-11.7683 -0.5996,-1.985 -1.2715,-3.828 -1.9589,-5.8115 -0.3671,-1.0405 -0.732,-2.0404 -1.126,-3.0936 z m -22.1591,-60.8817 c -1.1251,-2.91 -2.1237,-5.8875 -3.5567,-8.6643 -0.5631,-1.161 -1.9851,-1.6559 -3.1909,-1.2845 -3.6716,0.9001 -7.1921,2.3186 -10.746,3.5909 -7.519,2.8016 -14.9726,5.7742 -22.4455,8.6959 -0.3723,0.4523 -0.9445,0.8213 -1.2006,1.3222 -0.097,0.8772 0.044,1.72 0.4071,2.5232 0.6394,1.707 1.2129,3.4639 1.9353,5.1243 0.4648,0.3378 0.7741,1.0439 1.3374,1.1477 0.7959,0.065 1.5694,6e-4 2.2909,-0.3659 3.3934,-1.2351 6.7869,-2.4702 10.1803,-3.7053 0.102,0.5745 0.7559,1.2211 0.1861,1.7077 -2.9659,4.2498 -5.9319,8.4995 -8.8978,12.7493 -0.047,0.8918 -0.4712,1.8249 0.024,2.6573 0.8514,2.2573 1.6066,4.5749 2.5169,6.7951 0.4616,0.3329 0.7652,1.0683 1.3269,1.1455 0.6709,-0.1151 1.5074,0.1763 1.9601,-0.4737 0.9187,-0.9248 1.5043,-2.1426 2.2886,-3.1857 2.285,-3.3733 4.57,-6.7466 6.8549,-10.12 2.4226,2.6102 5.9882,4.1995 9.5731,3.8881 3.7689,-0.3511 7.5973,-2.1285 9.7518,-5.3348 2.2216,-3.2724 2.4293,-7.4936 1.5352,-11.2477 -0.4864,-2.3854 -1.2731,-4.6914 -2.1304,-6.9654 z m 5.0913,40.3939 c 0.5482,1.5442 0.5658,3.3673 -0.4682,4.7205 -2.3607,3.4329 -6.3711,5.2487 -10.2904,6.2538 2.9901,-4.917 5.9888,-9.829 8.973,-14.7495 0.8924,1.0898 1.3303,2.4642 1.7856,3.7752 z m -13.5449,-35.2386 c 0.5822,1.7953 1.3662,3.6864 1.0324,5.6047 -0.4308,1.4214 -2.1704,1.9695 -3.5199,1.8603 -1.5765,-0.286 -2.4131,-1.8867 -3.1447,-3.1556 -0.7023,-1.4219 -1.2393,-2.9165 -1.7793,-4.4053 2.1713,-0.7903 4.3424,-1.5806 6.5137,-2.3708 0.2993,0.8222 0.5985,1.6444 0.8978,2.4667 z m 24.0027,66.2841 c 0.3354,1.2379 0.9238,2.7309 0.1334,3.9057 -0.9138,1.0984 -2.9065,1.3783 -3.7989,0.094 -1.3053,-1.8383 -1.7797,-4.1021 -2.6235,-6.1633 -0.3477,-0.6483 0.893,-0.5559 1.2833,-0.8599 1.1563,-0.4209 2.3125,-0.8417 3.4688,-1.2625 0.53,1.4852 1.0623,2.8689 1.5365,4.2856 z m -31.1591,-22.0164 c -0.9519,-1.6816 -1.6984,-3.6049 -1.6103,-5.5663 0.2791,-2.301 2.1143,-4.021 3.8783,-5.3378 1.852,-1.311 3.9636,-2.2121 6.1248,-2.8756 -2.7976,4.5932 -5.5952,9.1864 -8.3928,13.7797 z m 17.0378,26.7383 c 0.558,1.7406 1.4802,3.678 0.7378,5.4992 -0.7441,1.2985 -2.7786,1.685 -3.8593,0.572 -2.143,-2.0452 -2.8436,-5.0443 -3.8922,-7.7128 -0.073,-0.5073 1.033,-0.4653 1.428,-0.7546 1.3874,-0.5049 2.7747,-1.0099 4.1622,-1.5149 0.4745,1.3037 0.949,2.6075 1.4235,3.9111 z"
       inkscape:export-filename="ROB mask outline 70 degrees.svg"
       inkscape:export-xdpi="96"
       inkscape:export-ydpi="96" />
  </g>
</svg>
