<?xml version="1.0" encoding="UTF-8" standalone="no"?>
<svg
   width="17.079802mm"
   height="26.366423mm"
   viewBox="3972.6 3539.6 67.244323 103.806"
   version="1.1"
   id="svg3605"
   sodipodi:docname="R0B 110 degrees for EasyEDA.svg"
   inkscape:version="1.2.2 (732a01da63, 2022-12-09)"
   inkscape:export-filename="ROB.svg"
   inkscape:export-xdpi="96"
   inkscape:export-ydpi="96"
   xmlns:inkscape="http://www.inkscape.org/namespaces/inkscape"
   xmlns:sodipodi="http://sodipodi.sourceforge.net/DTD/sodipodi-0.dtd"
   xmlns="http://www.w3.org/2000/svg"
   xmlns:svg="http://www.w3.org/2000/svg">
  <defs
     id="defs3609" />
  <sodipodi:namedview
     id="namedview3607"
     pagecolor="#ffffff"
     bordercolor="#000000"
     borderopacity="0.25"
     inkscape:showpageshadow="2"
     inkscape:pageopacity="0.0"
     inkscape:pagecheckerboard="0"
     inkscape:deskcolor="#d1d1d1"
     inkscape:document-units="mm"
     showgrid="false"
     inkscape:zoom="5.6568543"
     inkscape:cx="136.47161"
     inkscape:cy="138.85809"
     inkscape:window-width="2400"
     inkscape:window-height="1511"
     inkscape:window-x="-9"
     inkscape:window-y="-9"
     inkscape:window-maximized="1"
     inkscape:current-layer="text390"
     showguides="true">
    <sodipodi:guide
       position="41.885992,609.52168"
       orientation="0,-1"
       id="guide3485"
       inkscape:locked="false" />
    <sodipodi:guide
       position="28.364586,614.97654"
       orientation="0,-1"
       id="guide3487"
       inkscape:locked="false" />
  </sodipodi:namedview>
  <title
     id="title2330" />
  <style
     type="text/css"
     id="style2332">
*[layerid=&quot;1&quot;] {stroke:#000000;fill:#000000;}
*[layerid=&quot;2&quot;] {stroke:#000000;fill:#000000;}
*[layerid=&quot;3&quot;] {stroke:#000000;fill:#000000;}
*[layerid=&quot;4&quot;] {stroke:#000000;fill:#000000;}
*[layerid=&quot;5&quot;] {stroke:#000000;fill:#000000;}
*[layerid=&quot;6&quot;] {stroke:#000000;fill:#000000;}
*[layerid=&quot;7&quot;] {stroke:#000000;fill:#000000;}
*[layerid=&quot;8&quot;] {stroke:#000000;fill:#000000;}
*[layerid=&quot;9&quot;] {stroke:#000000;fill:#000000;}
*[layerid=&quot;10&quot;] {stroke:#000000;fill:#000000;}
*[layerid=&quot;11&quot;] {stroke:#000000;fill:#000000;}
*[layerid=&quot;12&quot;] {stroke:#000000;fill:#000000;}
*[layerid=&quot;13&quot;] {stroke:#000000;fill:#000000;}
*[layerid=&quot;14&quot;] {stroke:#000000;fill:#000000;}
*[layerid=&quot;15&quot;] {stroke:#000000;fill:#000000;}
*[layerid=&quot;19&quot;] {stroke:#000000;fill:#000000;}
*[layerid=&quot;21&quot;] {stroke:#000000;fill:#000000;}
*[layerid=&quot;22&quot;] {stroke:#000000;fill:#000000;}
*[layerid=&quot;23&quot;] {stroke:#000000;fill:#000000;}
*[layerid=&quot;24&quot;] {stroke:#000000;fill:#000000;}
*[layerid=&quot;25&quot;] {stroke:#000000;fill:#000000;}
*[layerid=&quot;26&quot;] {stroke:#000000;fill:#000000;}
*[layerid=&quot;27&quot;] {stroke:#000000;fill:#000000;}
*[layerid=&quot;28&quot;] {stroke:#000000;fill:#000000;}
*[layerid=&quot;29&quot;] {stroke:#000000;fill:#000000;}
*[layerid=&quot;30&quot;] {stroke:#000000;fill:#000000;}
*[layerid=&quot;31&quot;] {stroke:#000000;fill:#000000;}
*[layerid=&quot;32&quot;] {stroke:#000000;fill:#000000;}
*[layerid=&quot;33&quot;] {stroke:#000000;fill:#000000;}
*[layerid=&quot;34&quot;] {stroke:#000000;fill:#000000;}
*[layerid=&quot;35&quot;] {stroke:#000000;fill:#000000;}
*[layerid=&quot;36&quot;] {stroke:#000000;fill:#000000;}
*[layerid=&quot;37&quot;] {stroke:#000000;fill:#000000;}
*[layerid=&quot;38&quot;] {stroke:#000000;fill:#000000;}
*[layerid=&quot;39&quot;] {stroke:#000000;fill:#000000;}
*[layerid=&quot;40&quot;] {stroke:#000000;fill:#000000;}
*[layerid=&quot;41&quot;] {stroke:#000000;fill:#000000;}
*[layerid=&quot;42&quot;] {stroke:#000000;fill:#000000;}
*[layerid=&quot;43&quot;] {stroke:#000000;fill:#000000;}
*[layerid=&quot;44&quot;] {stroke:#000000;fill:#000000;}
*[layerid=&quot;45&quot;] {stroke:#000000;fill:#000000;}
*[layerid=&quot;46&quot;] {stroke:#000000;fill:#000000;}
*[layerid=&quot;47&quot;] {stroke:#000000;fill:#000000;}
*[layerid=&quot;48&quot;] {stroke:#000000;fill:#000000;}
*[layerid=&quot;49&quot;] {stroke:#000000;fill:#000000;}
*[layerid=&quot;50&quot;] {stroke:#000000;fill:#000000;}
*[layerid=&quot;51&quot;] {stroke:#000000;fill:#000000;}
*[layerid=&quot;52&quot;] {stroke:#000000;fill:#000000;}
*[layerid=&quot;99&quot;] {stroke:#000000;fill:#000000;}
*[layerid=&quot;100&quot;] {stroke:#000000;fill:#000000;}
*[layerid=&quot;101&quot;] {stroke:#000000;fill:#000000;}
*[layerid=&quot;Hole&quot;] {stroke:#000000;fill:#000000;}
*[layerid=&quot;DRCError&quot;] {stroke:#000000;fill:#000000;}
*[fill=&quot;none&quot;] {fill: none;}
*[stroke=&quot;none&quot;] {stroke: none;}
path, polyline, polygon, line {stroke-linecap:round;}
g[c_partid=&quot;part_pad&quot;][layerid=&quot;1&quot;] ellipse:not([c_etype=&quot;pad_outer&quot;]) {fill:#000000;}
g[c_partid=&quot;part_pad&quot;][layerid=&quot;1&quot;] polygon:not([c_etype=&quot;pad_outer&quot;]) {fill:#000000;}
g[c_partid=&quot;part_pad&quot;][layerid=&quot;1&quot;] polyline:not([c_etype=&quot;pad_outer&quot;]) {stroke:#000000;}
g[c_partid=&quot;part_pad&quot;][layerid=&quot;2&quot;] ellipse:not([c_etype=&quot;pad_outer&quot;]) {fill:#000000;}
g[c_partid=&quot;part_pad&quot;][layerid=&quot;2&quot;] polygon:not([c_etype=&quot;pad_outer&quot;]) {fill:#000000;}
g[c_partid=&quot;part_pad&quot;][layerid=&quot;2&quot;] polyline:not([c_etype=&quot;pad_outer&quot;]) {stroke:#000000;}
g[c_partid=&quot;part_pad&quot;][layerid=&quot;11&quot;] ellipse:not([c_etype=&quot;pad_outer&quot;]) {fill:#000000;}
g[c_partid=&quot;part_pad&quot;][layerid=&quot;11&quot;] polygon:not([c_etype=&quot;pad_outer&quot;]) {fill:#000000;}
g[c_partid=&quot;part_pad&quot;][layerid=&quot;11&quot;] polyline:not([c_etype=&quot;pad_outer&quot;]) {stroke:#000000;}
g[c_partid=&quot;part_pad&quot;][layerid=&quot;11&quot;] circle {fill:#FFFFFF;}
g[c_partid=&quot;part_pad&quot;][layerid=&quot;11&quot;] &gt; polyline:nth-of-type(2) {stroke:#FFFFFF;}
g[c_partid=&quot;part_pad&quot;][layerid=&quot;11&quot;][c_shape=&quot;ELLIPSE&quot;]  polyline:nth-last-of-type(1) {stroke:#FFFFFF;}
g[c_partid=&quot;part_pad&quot;][layerid=&quot;11&quot;][c_shape=&quot;RECT&quot;]  polyline:nth-last-of-type(1) {stroke:#FFFFFF;}
g[c_partid=&quot;part_pad&quot;][layerid=&quot;11&quot;][c_shape=&quot;POLYGON&quot;]  polyline:nth-last-of-type(1) {stroke:#FFFFFF;}
g[c_partid=&quot;part_via&quot;] &gt; * + circle, #gCurParts g[c_partid=&quot;part_via&quot;] &gt; * + circle {fill:#FFFFFF;}
g[c_partid=&quot;part_pad&quot;] &gt; polygon[c_etype=&quot;pad_outer&quot;], #gCurParts g[c_partid=&quot;part_pad&quot;] &gt; polygon[c_etype=&quot;pad_outer&quot;] {stroke-linejoin: round;stroke-miterlimit: 100;}
g[c_partid=&quot;part_hole&quot;] &gt; circle {fill: #FFFFFF;}path, polyline, polygon {stroke-linejoin:round;}
rect, circle, ellipse, polyline, line, polygon, path {shape-rendering:crispEdges;}
</style>
  <g
     aria-label="R0B"
     id="text390"
     style="font-size:77.7789px;font-family:'Tw Cen MT';-inkscape-font-specification:'Tw Cen MT, Normal';text-align:center;text-anchor:middle;fill:none;stroke:#000000;stroke-width:0.393707"
     transform="translate(20.065486,-510.81846)">
    <path
       id="path24171"
       style="font-size:8.33346px;fill:#000000;fill-opacity:1;stroke:none;stroke-width:2.96904;stroke-dasharray:none"
       d="m 4002.6297,4084.5938 c -0.6945,-2.6209 -3.9655,-3.9558 -6.3734,-2.8247 -1.6113,0.6311 -2.401,2.2454 -3.2387,3.6377 -5.1781,-0.3742 -10.3485,1.0851 -14.9589,3.3634 -4.3475,2.2076 -8.1945,5.7497 -10.08,10.3107 -1.4293,3.5388 -0.8588,7.5036 0.3896,11.0033 1.0236,2.9762 2.3074,5.9972 4.6311,8.203 -1.2145,2.1188 -0.3766,5.0763 1.772,6.2371 2.2222,1.3864 5.4241,0.4637 6.633,-1.8453 0.1759,-0.772 0.9196,-0.3464 1.476,-0.3621 5.4314,0.4182 10.8493,-1.2172 15.6018,-3.759 4.2011,-2.3073 7.933,-5.8816 9.5868,-10.4594 1.2824,-3.6858 0.4055,-7.6737 -0.9312,-11.2102 -1.0808,-3.0164 -2.5793,-6.0282 -5.113,-8.0858 0.8373,-1.2392 1.1153,-2.8496 0.6203,-4.2747 z m 13.2334,36.7756 c -0.7442,-1.8344 -1.3875,-3.7509 -2.3869,-5.4536 -0.6063,-0.3684 -1.0504,-1.2054 -1.8534,-1.0055 -1.2652,0.046 -2.437,0.6691 -3.6454,1.0116 -9.1447,3.1356 -18.243,6.4163 -27.2462,9.9391 -1.1999,0.5027 -2.4574,0.937 -3.5868,1.5643 -0.3116,0.4858 -0.9808,0.8398 -1.0654,1.4091 -0.1441,1.2973 0.5583,2.4435 0.909,3.6525 1.3501,3.7388 2.5219,7.5481 4.0644,11.2136 1.6852,3.8886 4.3702,7.5856 8.3123,9.4029 3.8439,1.8741 8.7685,1.3711 12.1074,-1.3134 1.6069,-1.3102 2.7696,-3.1581 3.2551,-5.1733 4.7584,2.1256 10.8634,-0.052 13.3818,-4.5748 2.0878,-3.5393 2.0365,-7.9376 0.8414,-11.7683 -0.5996,-1.985 -1.2715,-3.828 -1.9589,-5.8115 -0.3671,-1.0405 -0.732,-2.0404 -1.126,-3.0936 z m -22.1591,-60.8817 c -1.1251,-2.91 -2.1237,-5.8875 -3.5567,-8.6643 -0.5631,-1.161 -1.9851,-1.6559 -3.1909,-1.2845 -3.6716,0.9001 -7.1921,2.3186 -10.746,3.5909 -7.519,2.8016 -14.9726,5.7742 -22.4455,8.6959 -0.3723,0.4523 -0.9445,0.8213 -1.2006,1.3222 -0.097,0.8772 0.044,1.72 0.4071,2.5232 0.6394,1.707 1.2129,3.4639 1.9353,5.1243 0.4648,0.3378 0.7741,1.0439 1.3374,1.1477 0.7959,0.065 1.5694,6e-4 2.2909,-0.3659 3.3934,-1.2351 6.7869,-2.4702 10.1803,-3.7053 0.102,0.5745 0.7559,1.2211 0.1861,1.7077 -2.9659,4.2498 -5.9319,8.4995 -8.8978,12.7493 -0.047,0.8918 -0.4712,1.8249 0.024,2.6573 0.8514,2.2573 1.6066,4.5749 2.5169,6.7951 0.4616,0.3329 0.7652,1.0683 1.3269,1.1455 0.6709,-0.1151 1.5074,0.1763 1.9601,-0.4737 0.9187,-0.9248 1.5043,-2.1426 2.2886,-3.1857 2.285,-3.3733 4.57,-6.7466 6.8549,-10.12 2.4226,2.6102 5.9882,4.1995 9.5731,3.8881 3.7689,-0.3511 7.5973,-2.1285 9.7518,-5.3348 2.2216,-3.2724 2.4293,-7.4936 1.5352,-11.2477 -0.4864,-2.3854 -1.2731,-4.6914 -2.1304,-6.9654 z m 5.0913,40.3939 c 0.5482,1.5442 0.5658,3.3673 -0.4682,4.7205 -2.3607,3.4329 -6.3711,5.2487 -10.2904,6.2538 2.9901,-4.917 5.9888,-9.829 8.973,-14.7495 0.8924,1.0898 1.3303,2.4642 1.7856,3.7752 z m -13.5449,-35.2386 c 0.5822,1.7953 1.3662,3.6864 1.0324,5.6047 -0.4308,1.4214 -2.1704,1.9695 -3.5199,1.8603 -1.5765,-0.286 -2.4131,-1.8867 -3.1447,-3.1556 -0.7023,-1.4219 -1.2393,-2.9165 -1.7793,-4.4053 2.1713,-0.7903 4.3424,-1.5806 6.5137,-2.3708 0.2993,0.8222 0.5985,1.6444 0.8978,2.4667 z m 24.0027,66.2841 c 0.3354,1.2379 0.9238,2.7309 0.1334,3.9057 -0.9138,1.0984 -2.9065,1.3783 -3.7989,0.094 -1.3053,-1.8383 -1.7797,-4.1021 -2.6235,-6.1633 -0.3477,-0.6483 0.893,-0.5559 1.2833,-0.8599 1.1563,-0.4209 2.3125,-0.8417 3.4688,-1.2625 0.53,1.4852 1.0623,2.8689 1.5365,4.2856 z m -31.1591,-22.0164 c -0.9519,-1.6816 -1.6984,-3.6049 -1.6103,-5.5663 0.2791,-2.301 2.1143,-4.021 3.8783,-5.3378 1.852,-1.311 3.9636,-2.2121 6.1248,-2.8756 -2.7976,4.5932 -5.5952,9.1864 -8.3928,13.7797 z m 17.0378,26.7383 c 0.558,1.7406 1.4802,3.678 0.7378,5.4992 -0.7441,1.2985 -2.7786,1.685 -3.8593,0.572 -2.143,-2.0452 -2.8436,-5.0443 -3.8922,-7.7128 -0.073,-0.5073 1.033,-0.4653 1.428,-0.7546 1.3874,-0.5049 2.7747,-1.0099 4.1622,-1.5149 0.4745,1.3037 0.949,2.6075 1.4235,3.9111 z"
       inkscape:export-filename="ROB mask outline 70 degrees.svg"
       inkscape:export-xdpi="96"
       inkscape:export-ydpi="96" />
  </g>
</svg>
