<?xml version="1.0" encoding="UTF-8" standalone="no"?>
<svg
   width="1.7374221mm"
   height="2.0472336mm"
   viewBox="3972.6 3539.6 6.8403473 8.0600667"
   version="1.1"
   id="svg3605"
   sodipodi:docname="ROB.svg"
   inkscape:version="1.2.2 (732a01da63, 2022-12-09)"
   inkscape:export-filename="ROB.svg"
   inkscape:export-xdpi="96"
   inkscape:export-ydpi="96"
   xmlns:inkscape="http://www.inkscape.org/namespaces/inkscape"
   xmlns:sodipodi="http://sodipodi.sourceforge.net/DTD/sodipodi-0.dtd"
   xmlns="http://www.w3.org/2000/svg"
   xmlns:svg="http://www.w3.org/2000/svg">
  <defs
     id="defs3609" />
  <sodipodi:namedview
     id="namedview3607"
     pagecolor="#ffffff"
     bordercolor="#000000"
     borderopacity="0.25"
     inkscape:showpageshadow="2"
     inkscape:pageopacity="0.0"
     inkscape:pagecheckerboard="0"
     inkscape:deskcolor="#d1d1d1"
     inkscape:document-units="mm"
     showgrid="false"
     inkscape:zoom="40.484257"
     inkscape:cx="4.8784395"
     inkscape:cy="5.6441692"
     inkscape:window-width="2400"
     inkscape:window-height="1511"
     inkscape:window-x="-9"
     inkscape:window-y="-9"
     inkscape:window-maximized="1"
     inkscape:current-layer="text390" />
  <title
     id="title2330" />
  <style
     type="text/css"
     id="style2332">
*[layerid=&quot;1&quot;] {stroke:#000000;fill:#000000;}
*[layerid=&quot;2&quot;] {stroke:#000000;fill:#000000;}
*[layerid=&quot;3&quot;] {stroke:#000000;fill:#000000;}
*[layerid=&quot;4&quot;] {stroke:#000000;fill:#000000;}
*[layerid=&quot;5&quot;] {stroke:#000000;fill:#000000;}
*[layerid=&quot;6&quot;] {stroke:#000000;fill:#000000;}
*[layerid=&quot;7&quot;] {stroke:#000000;fill:#000000;}
*[layerid=&quot;8&quot;] {stroke:#000000;fill:#000000;}
*[layerid=&quot;9&quot;] {stroke:#000000;fill:#000000;}
*[layerid=&quot;10&quot;] {stroke:#000000;fill:#000000;}
*[layerid=&quot;11&quot;] {stroke:#000000;fill:#000000;}
*[layerid=&quot;12&quot;] {stroke:#000000;fill:#000000;}
*[layerid=&quot;13&quot;] {stroke:#000000;fill:#000000;}
*[layerid=&quot;14&quot;] {stroke:#000000;fill:#000000;}
*[layerid=&quot;15&quot;] {stroke:#000000;fill:#000000;}
*[layerid=&quot;19&quot;] {stroke:#000000;fill:#000000;}
*[layerid=&quot;21&quot;] {stroke:#000000;fill:#000000;}
*[layerid=&quot;22&quot;] {stroke:#000000;fill:#000000;}
*[layerid=&quot;23&quot;] {stroke:#000000;fill:#000000;}
*[layerid=&quot;24&quot;] {stroke:#000000;fill:#000000;}
*[layerid=&quot;25&quot;] {stroke:#000000;fill:#000000;}
*[layerid=&quot;26&quot;] {stroke:#000000;fill:#000000;}
*[layerid=&quot;27&quot;] {stroke:#000000;fill:#000000;}
*[layerid=&quot;28&quot;] {stroke:#000000;fill:#000000;}
*[layerid=&quot;29&quot;] {stroke:#000000;fill:#000000;}
*[layerid=&quot;30&quot;] {stroke:#000000;fill:#000000;}
*[layerid=&quot;31&quot;] {stroke:#000000;fill:#000000;}
*[layerid=&quot;32&quot;] {stroke:#000000;fill:#000000;}
*[layerid=&quot;33&quot;] {stroke:#000000;fill:#000000;}
*[layerid=&quot;34&quot;] {stroke:#000000;fill:#000000;}
*[layerid=&quot;35&quot;] {stroke:#000000;fill:#000000;}
*[layerid=&quot;36&quot;] {stroke:#000000;fill:#000000;}
*[layerid=&quot;37&quot;] {stroke:#000000;fill:#000000;}
*[layerid=&quot;38&quot;] {stroke:#000000;fill:#000000;}
*[layerid=&quot;39&quot;] {stroke:#000000;fill:#000000;}
*[layerid=&quot;40&quot;] {stroke:#000000;fill:#000000;}
*[layerid=&quot;41&quot;] {stroke:#000000;fill:#000000;}
*[layerid=&quot;42&quot;] {stroke:#000000;fill:#000000;}
*[layerid=&quot;43&quot;] {stroke:#000000;fill:#000000;}
*[layerid=&quot;44&quot;] {stroke:#000000;fill:#000000;}
*[layerid=&quot;45&quot;] {stroke:#000000;fill:#000000;}
*[layerid=&quot;46&quot;] {stroke:#000000;fill:#000000;}
*[layerid=&quot;47&quot;] {stroke:#000000;fill:#000000;}
*[layerid=&quot;48&quot;] {stroke:#000000;fill:#000000;}
*[layerid=&quot;49&quot;] {stroke:#000000;fill:#000000;}
*[layerid=&quot;50&quot;] {stroke:#000000;fill:#000000;}
*[layerid=&quot;51&quot;] {stroke:#000000;fill:#000000;}
*[layerid=&quot;52&quot;] {stroke:#000000;fill:#000000;}
*[layerid=&quot;99&quot;] {stroke:#000000;fill:#000000;}
*[layerid=&quot;100&quot;] {stroke:#000000;fill:#000000;}
*[layerid=&quot;101&quot;] {stroke:#000000;fill:#000000;}
*[layerid=&quot;Hole&quot;] {stroke:#000000;fill:#000000;}
*[layerid=&quot;DRCError&quot;] {stroke:#000000;fill:#000000;}
*[fill=&quot;none&quot;] {fill: none;}
*[stroke=&quot;none&quot;] {stroke: none;}
path, polyline, polygon, line {stroke-linecap:round;}
g[c_partid=&quot;part_pad&quot;][layerid=&quot;1&quot;] ellipse:not([c_etype=&quot;pad_outer&quot;]) {fill:#000000;}
g[c_partid=&quot;part_pad&quot;][layerid=&quot;1&quot;] polygon:not([c_etype=&quot;pad_outer&quot;]) {fill:#000000;}
g[c_partid=&quot;part_pad&quot;][layerid=&quot;1&quot;] polyline:not([c_etype=&quot;pad_outer&quot;]) {stroke:#000000;}
g[c_partid=&quot;part_pad&quot;][layerid=&quot;2&quot;] ellipse:not([c_etype=&quot;pad_outer&quot;]) {fill:#000000;}
g[c_partid=&quot;part_pad&quot;][layerid=&quot;2&quot;] polygon:not([c_etype=&quot;pad_outer&quot;]) {fill:#000000;}
g[c_partid=&quot;part_pad&quot;][layerid=&quot;2&quot;] polyline:not([c_etype=&quot;pad_outer&quot;]) {stroke:#000000;}
g[c_partid=&quot;part_pad&quot;][layerid=&quot;11&quot;] ellipse:not([c_etype=&quot;pad_outer&quot;]) {fill:#000000;}
g[c_partid=&quot;part_pad&quot;][layerid=&quot;11&quot;] polygon:not([c_etype=&quot;pad_outer&quot;]) {fill:#000000;}
g[c_partid=&quot;part_pad&quot;][layerid=&quot;11&quot;] polyline:not([c_etype=&quot;pad_outer&quot;]) {stroke:#000000;}
g[c_partid=&quot;part_pad&quot;][layerid=&quot;11&quot;] circle {fill:#FFFFFF;}
g[c_partid=&quot;part_pad&quot;][layerid=&quot;11&quot;] &gt; polyline:nth-of-type(2) {stroke:#FFFFFF;}
g[c_partid=&quot;part_pad&quot;][layerid=&quot;11&quot;][c_shape=&quot;ELLIPSE&quot;]  polyline:nth-last-of-type(1) {stroke:#FFFFFF;}
g[c_partid=&quot;part_pad&quot;][layerid=&quot;11&quot;][c_shape=&quot;RECT&quot;]  polyline:nth-last-of-type(1) {stroke:#FFFFFF;}
g[c_partid=&quot;part_pad&quot;][layerid=&quot;11&quot;][c_shape=&quot;POLYGON&quot;]  polyline:nth-last-of-type(1) {stroke:#FFFFFF;}
g[c_partid=&quot;part_via&quot;] &gt; * + circle, #gCurParts g[c_partid=&quot;part_via&quot;] &gt; * + circle {fill:#FFFFFF;}
g[c_partid=&quot;part_pad&quot;] &gt; polygon[c_etype=&quot;pad_outer&quot;], #gCurParts g[c_partid=&quot;part_pad&quot;] &gt; polygon[c_etype=&quot;pad_outer&quot;] {stroke-linejoin: round;stroke-miterlimit: 100;}
g[c_partid=&quot;part_hole&quot;] &gt; circle {fill: #FFFFFF;}path, polyline, polygon {stroke-linejoin:round;}
rect, circle, ellipse, polyline, line, polygon, path {shape-rendering:crispEdges;}
</style>
  <g
     aria-label="R0B"
     id="text390"
     style="font-size:77.7789px;font-family:'Tw Cen MT';-inkscape-font-specification:'Tw Cen MT, Normal';text-align:center;text-anchor:middle;fill:none;stroke:#000000;stroke-width:0.393707">
    <path
       d="M 3974.2663,3538.6994"
       style="font-size:8.33346px;fill:#000000;stroke:none;stroke-width:0.387401;stroke-linecap:round;stroke-linejoin:round;stroke-dasharray:none;shape-rendering:crispEdges"
       id="path1173" />
    <g
       aria-label="ROB"
       id="text1156"
       style="font-size:8.33346px;font-family:sans-serif;-inkscape-font-specification:'sans-serif, Normal';fill:#000000;stroke-width:0.275595"
       transform="translate(-12.762354,-18.500268)">
      <path
         d="m 3982.8943,3554.4303 v 2.2543 h -0.6633 v -5.4444 h 1.412 q 0.3581,0 0.6063,0.028 0.2523,0.024 0.4598,0.081 0.5696,0.1546 0.8708,0.529 0.3011,0.3703 0.3011,0.9277 0,0.3296 -0.1058,0.5901 -0.1058,0.2604 -0.2971,0.4516 -0.1912,0.1913 -0.4598,0.3133 -0.2645,0.1221 -0.59,0.1791 v 0.016 l 1.7782,2.3275 h -0.8342 l -1.6764,-2.2543 z m 0,-2.592 v 1.9939 h 0.6551 q 0.3052,0 0.5208,-0.02 0.2157,-0.02 0.3866,-0.073 0.3459,-0.1058 0.533,-0.3378 0.1872,-0.2319 0.1872,-0.6063 0,-0.3499 -0.179,-0.5615 -0.175,-0.2157 -0.4842,-0.3092 -0.1465,-0.045 -0.35,-0.065 -0.2034,-0.02 -0.5168,-0.02 z"
         style="font-family:Corbel;-inkscape-font-specification:'Corbel, Normal'"
         id="path1158" />
      <path
         d="m 3995.3438,3553.8688 q 0.2523,0.037 0.4517,0.1343 0.2035,0.098 0.3459,0.2522 0.1465,0.1506 0.2238,0.3622 0.077,0.2075 0.077,0.4761 0,0.1912 -0.057,0.4028 -0.057,0.2075 -0.1912,0.4069 -0.1302,0.1953 -0.3459,0.3622 -0.2116,0.1668 -0.529,0.2726 -0.2441,0.081 -0.5412,0.1139 -0.297,0.033 -0.712,0.033 h -1.4079 v -5.4444 h 1.359 q 0.1872,0 0.3378,0.01 0.1546,0 0.2807,0.016 0.1302,0.012 0.2401,0.032 0.1099,0.016 0.2075,0.041 0.2564,0.069 0.4639,0.1913 0.2116,0.118 0.3581,0.2848 0.1465,0.1668 0.2238,0.3784 0.081,0.2116 0.081,0.4598 0,0.1994 -0.049,0.3825 -0.045,0.1831 -0.1505,0.3377 -0.1018,0.1547 -0.2686,0.2767 -0.1628,0.1221 -0.3988,0.2035 z m -1.0132,-0.2727 q 0.1954,0 0.3378,-0.016 0.1424,-0.02 0.2563,-0.057 0.3052,-0.1017 0.4436,-0.3174 0.1424,-0.2156 0.1424,-0.5086 0,-0.3011 -0.1465,-0.4924 -0.1465,-0.1912 -0.4598,-0.2848 -0.1546,-0.045 -0.3581,-0.061 -0.2034,-0.02 -0.4801,-0.02 h -0.7447 v 1.7578 z m -1.0091,0.5982 v 1.8921 h 0.8016 q 0.2849,0 0.529,-0.024 0.2441,-0.028 0.415,-0.085 0.1872,-0.061 0.3174,-0.1547 0.1302,-0.098 0.2076,-0.2116 0.081,-0.118 0.1139,-0.2482 0.037,-0.1302 0.037,-0.2645 0,-0.1546 -0.037,-0.2889 -0.037,-0.1383 -0.1221,-0.2441 -0.081,-0.1099 -0.2197,-0.1913 -0.1343,-0.081 -0.3377,-0.1261 -0.1221,-0.028 -0.2808,-0.041 -0.1546,-0.012 -0.3866,-0.012 z"
         style="font-family:Corbel;-inkscape-font-specification:'Corbel, Normal'"
         id="path1162" />
    </g>
    <path
       d="m 3976.4643,3532.5556 c 0.6859,0 1.2429,0.1135 1.6707,0.6844 0.4313,0.5679 0.6468,1.3065 0.6468,2.2157 0,0.9424 -0.2319,1.693 -0.6958,2.2519 -0.4605,0.5589 -0.9987,0.6521 -1.6455,0.6521 -0.6729,0 -1.2486,-0.099 -1.6962,-0.6702 -0.4442,-0.574 -0.6664,-1.3034 -0.6664,-2.1885 0,-0.9818 0.2287,-1.746 0.686,-2.2928 0.4606,-0.5497 1.0111,-0.6526 1.6514,-0.6526 z m 1.4259,2.891 c 0,-0.6525 -0.1389,-1.1886 -0.4166,-1.6085 -0.2777,-0.42 -0.6273,-0.4865 -1.0486,-0.4865 -0.4345,0 -0.7889,0.064 -1.0634,0.482 -0.2743,0.4138 -0.4115,0.9605 -0.4115,1.6403 0,0.6735 0.1388,1.2158 0.4165,1.6266 0.2777,0.4078 0.6371,0.4971 1.078,0.4971 0.4248,0 0.7709,-0.093 1.0387,-0.5107 0.2712,-0.4199 0.4069,-0.9666 0.4069,-1.6403 z"
       style="font-size:8.33346px;fill:#000000;stroke:none;stroke-width:0.455905;stroke-dasharray:none"
       id="path1188"
       sodipodi:nodetypes="scscscscssssscscscs" />
    <path
       style="fill:#000000;fill-opacity:1;stroke:#000000;stroke-width:0.820628;stroke-dasharray:none;stroke-opacity:1"
       d="m 3978.2163,3537.9358 -3.7647,-4.9567 z"
       id="path1190"
       sodipodi:nodetypes="ccc" />
  </g>
</svg>
